<svg id="Capa_1" enable-background="new 0 0 512.009 512.009" height="512" viewBox="0 0 512.009 512.009" width="512" xmlns="http://www.w3.org/2000/svg"><g><g clip-rule="evenodd" fill-rule="evenodd"><path d="m442.967 69.044 20.115 35.914c1.128 2.016 3.055 3.579 5.467 4.222 4.763 1.27 9.682-1.569 10.987-6.34l21.99-81.044c.551-1.615.65-3.401.185-5.168-1.257-4.776-6.155-7.602-10.941-6.31l-81.365 22.077c-2.34.572-4.452 2.077-5.731 4.343-2.44 4.324-.927 9.783 3.379 12.192z" fill="#b5bacc"/><path d="m367.234 144.776c-32.619-32.619-73.234-54.427-116.557-64.256l-7.939 39.06c35.736 8.313 69.199 26.468 96.211 53.48z" fill="#d1b7a1"/><path d="m242.739 119.581 7.939-39.06c-43.346-9.833-89.403-7.674-132.877 7.649-11.206-5.515-25.138-3.611-34.461 5.712-11.716 11.716-11.716 30.711 0 42.426 11.716 11.716 30.711 11.716 42.426 0 3.254-3.254 5.603-7.07 7.049-11.136 36.127-12.376 74.164-13.91 109.924-5.591z" fill="#b58867"/><path d="m338.949 173.06c27.012 27.012 45.166 60.474 53.48 96.211l39.06-7.939c-9.828-43.323-31.637-83.937-64.255-116.556z" fill="#d1b7a1"/><path d="m431.49 261.332-39.06 7.939c8.319 35.76 6.784 73.796-5.591 109.924-4.065 1.446-7.882 3.795-11.136 7.05-11.716 11.716-11.716 30.711 0 42.426 11.716 11.716 30.711 11.716 42.426 0 9.323-9.323 11.227-23.255 5.712-34.461 15.323-43.474 17.482-89.532 7.649-132.878z" fill="#b58867"/><g fill="#eebf50"><path d="m144.583 431.067c4.605-4.605 2.788-10.861 0-16.747l-15.073-31.82-27.164 27.164-28 28-28.573 28.573 15.072 31.82c2.788 5.885 12.142 4.605 16.747 0z"/><path d="m102.346 409.664 27.164-27.164-31.82-15.072c-5.886-2.788-12.142-4.605-16.747 0l-66.99 66.99c-4.605 4.606-5.885 13.96 0 16.747l31.82 15.072 28.573-28.573z"/></g></g><g><path d="m511.381 14.082c-1.289-4.898-4.411-8.994-8.792-11.531-4.392-2.543-9.511-3.211-14.438-1.886l-81.267 22.051c-5.028 1.272-9.366 4.583-11.92 9.106-2.502 4.434-3.124 9.568-1.752 14.457 1.365 4.869 4.547 8.909 8.953 11.374l24.389 13.66-59.468 59.468c-32.097-29.627-71.386-50.307-114.232-60.021-44.809-10.156-91.293-7.83-134.692 6.711-14.46-5.238-30.825-1.729-41.894 9.339-14.531 14.532-15.516 37.551-2.969 53.241l-.691 66.72c-.058 5.522 4.373 10.046 9.896 10.103.035.001.07.001.105.001 5.475 0 9.94-4.409 9.998-9.896l.554-53.525c3.651 1.079 7.477 1.643 11.39 1.643 10.685 0 20.729-4.161 28.283-11.715 3.006-3.006 5.472-6.395 7.364-10.116 64.732-20.57 134.168-5.396 184.427 39.978l-197.203 197.202-25.451-12.056c-3.89-1.843-7.522-2.989-10.898-3.47l.601-57.956c.058-5.522-4.373-10.046-9.896-10.104-.035 0-.07 0-.105 0-5.475 0-9.94 4.409-9.997 9.896l-.69 66.484-64.105 64.107c-5.221 5.223-7.804 13.163-6.579 20.229.981 5.668 4.397 10.271 9.37 12.626l28.593 13.544 13.543 28.593c2.355 4.973 6.958 8.388 12.626 9.37 1.166.201 2.355.3 3.553.3 6.061 0 12.316-2.52 16.678-6.88l64.104-64.105 223.189-2.313c7.065 5.664 15.773 8.747 24.958 8.747 10.685 0 20.729-4.161 28.284-11.716 11.067-11.067 14.578-27.432 9.339-41.894 14.541-43.399 16.87-89.883 6.711-134.692-9.714-42.846-30.393-82.135-60.02-114.233l59.468-59.468 13.658 24.386c2.467 4.407 6.7 7.688 11.618 9.001 1.62.432 3.25.638 4.856.638 8.351 0 16.047-5.579 18.357-14.023l21.92-80.79c1.098-3.436 1.194-7.088.274-10.585zm-313.868 90.302c-22.994 0-45.938 3.791-67.938 11.328-2.884.987-5.16 3.236-6.182 6.108-.996 2.799-2.576 5.294-4.699 7.417-3.777 3.776-8.8 5.857-14.142 5.857s-10.364-2.081-14.142-5.858c-7.798-7.798-7.798-20.486 0-28.284 6.061-6.06 15.292-7.592 22.975-3.811 2.413 1.188 5.203 1.352 7.739.459 38.33-13.51 78.966-16.231 117.733-9.131l-3.923 19.305c-12.394-2.25-24.914-3.39-37.421-3.39zm56.916 7.888 3.934-19.356c34.741 9.506 67.324 27.088 94.566 52.023l-14.151 14.151c-24.149-21.966-52.99-37.974-84.349-46.818zm124.316 259.539c-3.721 1.893-7.108 4.357-10.114 7.362-10.721 10.722-14.072 26.065-10.053 39.675l-201.489 2.089c-.48-3.375-1.627-7.007-3.47-10.898l-12.055-25.45 197.205-197.206c45.373 50.26 60.549 119.694 39.976 184.428zm-357.72 69.677 66.879-66.877c.523.012 2.061.223 5.505 1.854l18.997 8.998-12.147 12.147-6.305-2.987c-4.988-2.365-10.954-.235-13.317 4.757-2.341 4.941-.272 10.83 4.613 13.24l-12.99 12.99-6.305-2.987c-4.988-2.365-10.954-.235-13.317 4.757-2.341 4.941-.272 10.83 4.613 13.24l-13.562 13.562-23.508-11.132c.177-.574.476-1.193.844-1.562zm49.498 49.498c-.369.369-.988.667-1.562.845l-11.133-23.504 13.565-13.565c1.736 3.518 5.27 5.579 8.963 5.579 1.435 0 2.892-.31 4.273-.965 4.991-2.363 7.121-8.326 4.757-13.317l-2.986-6.304 12.993-12.992c1.736 3.518 5.27 5.579 8.963 5.579 1.435 0 2.892-.31 4.273-.965 4.991-2.363 7.121-8.326 4.757-13.317l-2.986-6.304 12.147-12.147 8.998 18.996c1.634 3.45 1.843 4.986 1.854 5.508zm343.886-100.1c-.894 2.536-.729 5.326.459 7.739 3.78 7.683 2.249 16.915-3.811 22.975-3.777 3.778-8.799 5.858-14.142 5.858-5.342 0-10.364-2.081-14.142-5.858s-5.858-8.8-5.858-14.143c0-5.342 2.081-10.364 5.858-14.142 2.121-2.122 4.617-3.703 7.418-4.7 2.871-1.022 5.119-3.297 6.106-6.181 11.636-33.968 14.338-70.183 7.95-105.361l19.292-3.921c7.102 38.768 4.38 79.404-9.13 117.734zm4.685-137.239-19.356 3.934c-8.844-31.36-24.852-60.2-46.818-84.348l14.151-14.151c24.935 27.242 42.517 59.825 52.023 94.565zm51.444-155.838-18.847-33.651c-.9-1.608-2.229-2.938-3.838-3.838l-33.674-18.86 77.342-20.985z"/><path d="m82.141 261.867c5.522 0 10-4.478 10-10s-4.478-10-10-10h-.008c-5.522 0-9.996 4.478-9.996 10s4.482 10 10.004 10z"/></g></g></svg>