<svg height="512" viewBox="0 0 64 64" width="512" xmlns="http://www.w3.org/2000/svg"><g id="Fill_Outline" data-name="Fill Outline"><g id="Color"><path d="m30.192 30.192a31.385 31.385 0 0 0 -22.192-9.192 12 12 0 0 1 12-12 13.91 13.91 0 0 1 13.759 11.87l1.037 7a2.714 2.714 0 0 1 -4.604 2.322z" fill="#e9f1f2"/><path d="m21.96 20.3-13.92-.02a12 12 0 0 1 3.72-8 11.507 11.507 0 0 1 1.49-1.2 2.235 2.235 0 0 0 2.41 1.15 12.057 12.057 0 0 1 2.34-.23 13.913 13.913 0 0 1 13.76 11.87 2.243 2.243 0 0 0 2.45 1.91l.27-.03.32 2.16a2.7 2.7 0 0 1 -2.7 3.1 2.63 2.63 0 0 1 -1.89-.8z" fill="#d0d8da"/><path d="m33 57h-1v-9a4 4 0 0 0 -4-4h-6v3a4 4 0 0 0 4 4v6a4 4 0 0 0 4 4h7a4 4 0 0 0 -4-4z" fill="#e53935"/><path d="m59.278 22.926a5.146 5.146 0 0 1 -5.894 3.54l-5.7-1.005-2.784 15.757a17 17 0 0 1 -19.69 13.79l-14.822-2.614c-.138-.024-.285-.05-.421-.084a8.785 8.785 0 0 1 -6.712-10.079 8.1 8.1 0 0 1 .26-1.071 7.006 7.006 0 0 1 7.909-4.83l4.746.837a4 4 0 0 1 -4.633 3.245l-.865-.153a2.087 2.087 0 0 0 -2.349 1.27 2 2 0 0 0 1.534 2.648l3.939.7a10 10 0 0 0 11.585-8.117 9.988 9.988 0 0 1 5.434-7.236 19.615 19.615 0 0 0 9.832-10.313l.025-.063.092-.522a6.488 6.488 0 0 1 8.7-4.921 6.542 6.542 0 0 1 1.643.925l.874.656a6.653 6.653 0 0 0 2.888 1.287l5.187.915a1 1 0 0 1 .763 1.335z" fill="#ef5350"/><path d="m59.28 22.93a5.164 5.164 0 0 1 -5.9 3.54l-5.7-1.01-2.78 15.76a17 17 0 0 1 -19.69 13.79l-14.82-2.62c-.14-.02-.29-.05-.42-.08a8.793 8.793 0 0 1 -6.72-10.08c.07-.35.15-.71.26-1.07a7.382 7.382 0 0 1 .69-1.54 8.781 8.781 0 0 0 6.77 9.69c.13.03.28.06.42.08l10.82 1.62a17 17 0 0 0 19.69-13.79l1.4-7.92a7.339 7.339 0 0 1 9.08-5.83 5.361 5.361 0 0 0 4.457-1.245 1.531 1.531 0 0 1 2.443.7z" fill="#e53935"/><path d="m46.867 30.08-1.967 11.138a17 17 0 0 1 -19.69 13.79l-14.575-2.57a24.688 24.688 0 0 1 15.532-2.338l2.865.505a6 6 0 0 0 6.951-4.866l1.042-5.909a11.963 11.963 0 0 1 4.931-7.752 11.809 11.809 0 0 1 4.911-1.998z" fill="#fcea42"/><path d="m29.03 50.6-2.86-.5q-.315-.06-.63-.09a4.073 4.073 0 0 0 1.048 1.177 16.919 16.919 0 0 1 -4.378-.177l-5.25-.79a24.809 24.809 0 0 0 -6.33 2.22l14.58 2.57a17 17 0 0 0 19.69-13.79l1.97-11.14a11.423 11.423 0 0 0 -3.96 1.4l-.818 4.647-1.092-.127a2 2 0 0 0 -1.3-1.87 11.832 11.832 0 0 0 -2.57 5.21 2.976 2.976 0 0 0 1.87.66h2.146a16.9 16.9 0 0 1 -6.166 8.14l-.069.054a11.509 11.509 0 0 1 -5.881 2.406z" fill="#fdc741"/><path d="m35.457 14.167 2.892-.861a7.386 7.386 0 0 1 6.5 1.147l.919.681a1.875 1.875 0 0 1 .388 2.621 1.873 1.873 0 0 1 -3.039-.042 7.385 7.385 0 0 0 -4.765-3.036z" fill="#e9f1f2"/><path d="m27.192 35.192a31.385 31.385 0 0 0 -22.192-9.192 12 12 0 0 1 12-12 13.91 13.91 0 0 1 13.759 11.87l1.037 7a2.714 2.714 0 0 1 -4.604 2.322z" fill="#e53935"/><path d="m27.192 35.192a2.683 2.683 0 0 0 3.541.255l-.974-6.577a13.91 13.91 0 0 0 -13.759-11.87 11.975 11.975 0 0 0 -10.785 6.772 11.959 11.959 0 0 0 -.182 1.573 7 7 0 0 1 12.932 2.955 6.995 6.995 0 0 1 8.92 5.421 7.117 7.117 0 0 1 .109 1.279c.065.068.134.128.198.192z" fill="#c62828"/><path d="m12 19a7 7 0 0 1 6.965 6.3 6.993 6.993 0 0 1 8.249 9.911 2.7 2.7 0 0 0 4.586-2.305l-1.041-7.036a13.91 13.91 0 0 0 -13.759-11.87 11.99 11.99 0 0 0 -11.964 11.284 7 7 0 0 1 6.964-6.284z" fill="#e9f1f2"/><path d="m37 57h-1v-9a4 4 0 0 0 -4-4h-6v3a4 4 0 0 0 4 4v6a4 4 0 0 0 4 4h7a4 4 0 0 0 -4-4z" fill="#ff7373"/><path d="m41 61h-7a4 4 0 0 1 -4-4v-6a4 4 0 0 1 -4-4v-3h2v1a4 4 0 0 0 2.241 3.594 2.983 2.983 0 0 1 1.759 2.65v3.337a4.109 4.109 0 0 0 4 4.419h2.91a2.056 2.056 0 0 1 2.09 1.978z" fill="#ef5350"/><path d="m41 34a2 2 0 0 0 -2-2h-3v3a3 3 0 0 0 3 3h11a3.315 3.315 0 0 0 -2.985-3.3z" fill="#ff7373"/><path d="m50 38h-11a3 3 0 0 1 -3-3v-3h2v1a3 3 0 0 0 3 3h8.32a3.264 3.264 0 0 1 .68 2z" fill="#ef5350"/><path d="m47.68 25.46-.61 3.43a5.367 5.367 0 0 1 -3.26-4.94 5.275 5.275 0 0 1 .45-2.14 3.018 3.018 0 0 0 2.44 3.48z" fill="#e53935"/><g fill="#d0d8da"><path d="m29.1 36.01a2.63 2.63 0 0 1 -1.89-.8 6.971 6.971 0 0 0 -4.77-10.06 7.125 7.125 0 0 0 -3.48.15 7 7 0 0 0 -13.92-.02 12 12 0 0 1 3.72-8 11.507 11.507 0 0 1 1.49-1.2 2.235 2.235 0 0 0 2.41 1.15 12.057 12.057 0 0 1 2.34-.23 13.913 13.913 0 0 1 13.76 11.87 2.243 2.243 0 0 0 2.45 1.91l.27-.03.32 2.16a2.7 2.7 0 0 1 -2.7 3.1z"/><path d="m46.16 17.75a1.871 1.871 0 0 1 -3.04-.04 7.387 7.387 0 0 0 -4.77-3.03l-2.89-.51 2.89-.86a6.8 6.8 0 0 1 1.33-.26 7.344 7.344 0 0 1 3.44 2.66 1.871 1.871 0 0 0 3.04.04.375.375 0 0 0 .07-.12 1.853 1.853 0 0 1 -.07 2.12z"/></g></g><g id="Outline_copy" fill="#323232" data-name="Outline copy"><path d="m4.239 42.405a7.545 7.545 0 0 1 .231-.95 6.018 6.018 0 0 1 6.78-4.14l3.6.634a3.007 3.007 0 0 1 -3.135 1.478l-.865-.153a3.1 3.1 0 0 0 -3.465 1.92 3.006 3.006 0 0 0 2.3 3.968l3.939.694a11 11 0 0 0 12.742-8.922 8.669 8.669 0 0 1 .228-.946 3.663 3.663 0 0 0 2.5 1.012 3.745 3.745 0 0 0 1.687-.408 3.664 3.664 0 0 0 2.005-3.862l-.433-2.92a20.4 20.4 0 0 0 8.876-9.4 1 1 0 1 0 -1.826-.818 17.359 17.359 0 0 1 -4 5.546l-.654-4.413a14.933 14.933 0 0 0 -4.749-8.857 1 1 0 0 0 -1.342 1.483 12.93 12.93 0 0 1 4.109 7.666l.835 5.635c-.5.366-1.024.709-1.566 1.037l-.291-1.965a15 15 0 0 0 -14.745-12.724 12.9 12.9 0 0 0 -5.778 1.372 10.987 10.987 0 0 1 8.778-4.372 12.77 12.77 0 0 1 5.584 1.271 1 1 0 0 0 .867-1.8 14.77 14.77 0 0 0 -6.451-1.471 12.984 12.984 0 0 0 -12.326 8.869 1.034 1.034 0 0 0 -.014.11 12.94 12.94 0 0 0 -3.618 8.2c-.018.276-.042.545-.042.821a1 1 0 0 0 1 1 30.754 30.754 0 0 1 3.779.245 1 1 0 1 0 .248-1.984c-.994-.125-1.973-.2-2.924-.239a5.987 5.987 0 0 1 11.867.378 1 1 0 0 0 1.285.859 5.959 5.959 0 0 1 7.544 7.2 32.409 32.409 0 0 0 -13.715-7.428 1 1 0 1 0 -.5 1.937 30.429 30.429 0 0 1 12.416 6.544 10.864 10.864 0 0 0 -.605 2.074 9 9 0 0 1 -10.425 7.3l-3.94-.7a1 1 0 0 1 -.766-1.328 1.1 1.1 0 0 1 1.233-.62l.864.152a5 5 0 0 0 5.793-4.056 1 1 0 0 0 -.811-1.158l-4.743-.831a8.017 8.017 0 0 0 -9.036 5.511 9.152 9.152 0 0 0 -.291 1.2 9.71 9.71 0 0 0 .715 5.682 1 1 0 0 0 1.825-.819 7.724 7.724 0 0 1 -.574-4.514zm18.4-18.238a8.031 8.031 0 0 0 -2.864-.073 8 8 0 0 0 -10.96-5.432 10.976 10.976 0 0 1 8.185-3.662 12.986 12.986 0 0 1 12.77 11.017l1.038 7a1.675 1.675 0 0 1 -.926 1.783 1.708 1.708 0 0 1 -1.439.054 7.942 7.942 0 0 0 -5.807-10.692z"/><path d="m61.613 17.479a1.992 1.992 0 0 0 -1.387-.976l-2.017-.356a1 1 0 0 0 -.348 1.97l2.017.356-.356.952-1.587-.279a1 1 0 1 0 -.348 1.969l1.223.216-.5 1.328a3.731 3.731 0 0 1 -.889 1.545l-2.393-1.775a2.959 2.959 0 0 0 -3.464-.047 1 1 0 0 0 1.147 1.639.962.962 0 0 1 1.126.015l1.759 1.3a4.336 4.336 0 0 1 -2.042.14l-5.7-1.005-.984-.174a2 2 0 0 1 -1.623-2.316 1 1 0 1 0 -1.969-.348 4 4 0 0 0 3.244 4.634l-.522 2.981a12.893 12.893 0 0 0 -4.616 2.01c-.174.122-.348.257-.524.4a2.981 2.981 0 0 0 -1.86-.658 1 1 0 0 0 0 2 1 1 0 0 1 1 1 1 1 0 0 0 .884.993l6.031.7a2.3 2.3 0 0 1 1.791 1.2.947.947 0 0 0 .046.108h-9.752a2 2 0 0 1 -2-2 1 1 0 0 0 -2 0 3.974 3.974 0 0 0 1.447 3.053 12.75 12.75 0 0 0 -.406 1.6l-.8 4.565a4.955 4.955 0 0 0 -3.241-1.219 1 1 0 0 0 0 2 3 3 0 0 1 3 3v9a1 1 0 0 0 1 1h1a3.006 3.006 0 0 1 2.829 2h-5.829a3 3 0 0 1 -3-3v-6a1 1 0 0 0 -1-1 3 3 0 0 1 -3-3 1 1 0 0 0 -2 0 4.946 4.946 0 0 0 .432 1.991 25.486 25.486 0 0 0 -14.932 2.409c-.1-.018-.2-.035-.316-.064a7.654 7.654 0 0 1 -3.222-1.581 1 1 0 0 0 -1.269 1.545 9.6 9.6 0 0 0 4.03 1.983c.159.04.333.073.492.1l14.785 2.603v1.014a5.006 5.006 0 0 0 5 5h11a1 1 0 0 0 1-1 5.006 5.006 0 0 0 -5-5v-8a4.931 4.931 0 0 0 -.212-1.36 6.384 6.384 0 0 0 .18-.729l1.043-5.911a10.566 10.566 0 0 1 .252-1.076 3.987 3.987 0 0 0 .737.076h5.279l-.36 2.044c-.058.33-.138.653-.217.977l-2.911-.513a1 1 0 0 0 -.348 1.97l2.664.469a16.009 16.009 0 0 1 -1.346 2.709l-1.2-.994a1 1 0 1 0 -1.277 1.538l1.316 1.1a15.9 15.9 0 0 1 -2.086 2.147 1 1 0 0 0 1.293 1.526 17.981 17.981 0 0 0 6.076-10.576l.426-2.397h3.38a1.213 1.213 0 0 1 .484.609 1.227 1.227 0 0 1 -.068.943 1 1 0 0 0 .448 1.342.991.991 0 0 0 .447.106 1 1 0 0 0 .9-.552 3.239 3.239 0 0 0 -.919-4.011l.035-.007a1.916 1.916 0 0 1 2.094 1.017 1 1 0 0 0 1.79-.894 3.923 3.923 0 0 0 -4.288-2.082l-.381.079c-.064-.093-.131-.182-.2-.269a1.22 1.22 0 0 1 1.528-.386 1 1 0 1 0 .894-1.79 3.237 3.237 0 0 0 -4.03.955 4.253 4.253 0 0 0 -1.178-.33l1.254-7.11 4.717.831a6.146 6.146 0 0 0 7.005-4.174l1.536-4.1a2 2 0 0 0 -.144-1.698zm-35.62 33.605 1.6.282a4.914 4.914 0 0 0 1.407.534v2.328a16.04 16.04 0 0 1 -2.633-.066 1 1 0 0 0 -1.968-.312l-2.955-.521a1 1 0 1 0 -1.97-.346l-5.331-.94a23.48 23.48 0 0 1 11.85-.959zm1.007 5.916v-.788c.372.023.743.048 1.117.048.294 0 .589-.028.883-.042v.782a4.948 4.948 0 0 0 1.026 3h-.026a3 3 0 0 1 -3-3zm18.619-25.6-.367 2.086-3.037-.354c.1-.081.211-.166.314-.239a10.966 10.966 0 0 1 3.09-1.493z"/><path d="m49.071 17.582a1 1 0 1 0 1.158-.811 1 1 0 0 0 -1.158.811z"/><path d="m35.283 15.151 2.9.512a6.338 6.338 0 0 1 4.12 2.624 2.843 2.843 0 0 0 2.314 1.225h.041a2.845 2.845 0 0 0 2.307-1.161 2.875 2.875 0 0 0 -.573-4 5.338 5.338 0 0 1 4.108 1.078l.874.657a7.618 7.618 0 0 0 3.315 1.472 1.052 1.052 0 0 0 .175.015 1 1 0 0 0 .173-1.985 5.65 5.65 0 0 1 -2.461-1.1l-.876-.658a7.426 7.426 0 0 0 -7.5-.93 8.415 8.415 0 0 0 -6.132-.551l-2.891.86a1 1 0 0 0 .111 1.943zm8.973.105.919.682a.873.873 0 0 1 .181 1.221.852.852 0 0 1 -.713.353.865.865 0 0 1 -.7-.372 8.316 8.316 0 0 0 -4.1-3.108 6.429 6.429 0 0 1 4.413 1.224z"/></g></g></svg>