<svg height="512" viewBox="0 0 64 64" width="512" xmlns="http://www.w3.org/2000/svg"><g id="Fill_Ouline" data-name="Fill Ouline"><g id="Color"><g><path d="m46 47 9-11h6v-4h-4l2-10h-4l-2 10-7 4z" fill="#93999a"/><path d="m57 34a5.978 5.978 0 0 1 -4.3-1.826l-6.7 3.826v11l9-11h6v-2z" fill="#656b76"/><path d="m18 48-10-9h-5v-4h4l-4-9 3-2 5 11 7 4z" fill="#656b76"/><path d="m13.742 36.567a2.21 2.21 0 0 1 -3.977-.076l-5.294-11.471-1.471.98 4 9h-4v4h5l10 9v-9z" fill="#464a51"/><path d="m52 56h-4v-38l6-15h-6l-9 15h-2l-1-16h-6l-4 16-5-15h-10l5 19v34h-4a4 4 0 0 0 -4 4v1h48v-1a4 4 0 0 0 -4-4z" fill="#93999a"/><path d="m52 56h-4v-5h-15a8 8 0 0 1 -8-8 55.556 55.556 0 0 0 -2.257-15.675l-7.155-24.325h-4.588l5 19v34h-4a4 4 0 0 0 -4 4v1h48v-1a4 4 0 0 0 -4-4z" fill="#656b76"/><path d="m20 37 5 3 3-3 4 4 4-4 3 4 5-4-2 9-5-2-5 4-4-5-4 3z" fill="#cc5144"/><path d="m24 46 1.274-.955a7.976 7.976 0 0 1 -.274-2.045c0-1.02-.037-2.039-.093-3.056l-4.907-2.944z" fill="#80271e"/><path d="m35 31 5-5 2 6z" fill="#cc5144"/><path d="m29 31-5-5-2 6z" fill="#cc5144"/><path d="m33 11v-9h-3l-4 16a7 7 0 0 0 7-7z" fill="#656b76"/><path d="m45.021 13.406 5.854-10.406h-2.875l-9 15a9.571 9.571 0 0 0 6.021-4.594z" fill="#656b76"/><g fill="#80271e"><path d="m25 43 3-3 4 4 4-4 3 4 4.189-3.351.811-3.649-5 4-3-4-4 4-4-4-3 3-5-3 1.818 4.091z"/><path d="m42 32-2-6-1.75 1.75 1.3 3.9z"/><path d="m24 26-.75 2.25 3.125 3.125 2.625-.375z"/><path d="m22 32 1.839-.263q-.319-1.545-.728-3.071z"/></g></g></g><g id="Outline_copy" data-name="Outline copy"><g fill="#323232"><path d="m25.051 18.316a1 1 0 0 0 .949.684h.039a1 1 0 0 0 .931-.757l4-16a1 1 0 1 0 -1.94-.484l-3.167 12.667-3.914-11.742a1 1 0 0 0 -1.9.632z"/><path d="m37 19h2a1 1 0 0 0 .857-.485l9-15a1 1 0 0 0 -1.714-1.03l-8.709 14.515h-.495l-.939-15.062a1.011 1.011 0 0 0 -1.063-.938 1 1 0 0 0 -.937 1.063l1 16a1 1 0 0 0 1 .937z"/><path d="m47.629 18.929a.986.986 0 0 0 .371.071 1 1 0 0 0 .929-.629l6-15a1 1 0 1 0 -1.858-.742l-6 15a1 1 0 0 0 .558 1.3z"/><path d="m43.375 36.219-4.194 3.355-2.381-3.174a1 1 0 0 0 -.729-.4.976.976 0 0 0 -.778.29l-3.293 3.296-3.293-3.293a1 1 0 0 0 -1.414 0l-2.448 2.448-4.33-2.6a1 1 0 0 0 -1.429 1.263l4 9a1 1 0 0 0 1.514.396l3.225-2.418 3.394 4.243a1 1 0 0 0 1.406.156l4.545-3.636 4.459 1.784a1 1 0 0 0 1.348-.712l.755-3.4a1 1 0 1 0 -1.953-.433l-.5 2.252-3.908-1.564a1 1 0 0 0 -1 .148l-4.215 3.38-3.375-4.22a1 1 0 0 0 -1.381-.18l-3 2.247-2.2-4.962 2.286 1.372a1 1 0 0 0 1.222-.15l2.292-2.293 3.293 3.293a1 1 0 0 0 1.414 0l3.185-3.185 2.308 3.078a1 1 0 0 0 .674.392 1.014 1.014 0 0 0 .751-.211l5-4a1 1 0 1 0 -1.25-1.562z"/><path d="m34.858 31.99 7 1a.978.978 0 0 0 .142.01 1 1 0 0 0 .948-1.316l-2-6a1 1 0 0 0 -1.655-.391l-5 5a1 1 0 0 0 .565 1.7zm4.7-4.138.978 2.929-3.419-.488z"/><path d="m23.77 25.026a1 1 0 0 0 -.719.658l-2 6a1 1 0 0 0 .949 1.316.978.978 0 0 0 .142-.01l7-1a1 1 0 0 0 .565-1.7l-5-5a1.008 1.008 0 0 0 -.937-.264zm-.31 5.755.977-2.929 2.442 2.441z"/><path d="m19.051 18.316a1 1 0 0 0 1.9-.632l-3-9a1 1 0 0 0 -1.9.632z"/><path d="m31.91 15h.091a1 1 0 0 0 1-.909l1-11a1 1 0 1 0 -2.001-.182l-1 11a1 1 0 0 0 .91 1.091z"/><path d="m22 55h-5v-33a1 1 0 0 0 -.033-.255l-5-19a1 1 0 0 0 -1.934.51l4.967 18.874v14.005l-3.223-1.842-1.767-3.892 2.7-2.7a1 1 0 0 0 .263-.949l-1-4a1 1 0 1 0 -1.94.484l.863 3.451-1.77 1.774-2.216-4.874a1 1 0 0 0 -1.465-.418l-3 2a1 1 0 0 0 -.359 1.238l3.375 7.594h-2.461a1 1 0 0 0 0 2h4a1 1 0 0 0 .914-1.406l-3.658-8.23 1.32-.88 4.514 9.93a1 1 0 0 0 .414.454l4.5 2.57v16.562h-3.004a5.006 5.006 0 0 0 -5 5v1a1 1 0 0 0 2 0v-1a3 3 0 0 1 3-3h10a1 1 0 0 0 0-2z"/><path d="m43 50a1 1 0 0 0 -1 1v5a1 1 0 0 0 2 0v-5a1 1 0 0 0 -1-1z"/><path d="m38 47a1 1 0 0 0 -1 1v7a1 1 0 0 0 2 0v-7a1 1 0 0 0 -1-1z"/><path d="m27 48a1 1 0 0 0 -1 1v7a1 1 0 0 0 2 0v-7a1 1 0 0 0 -1-1z"/><path d="m32 28a1 1 0 0 0 1-1v-7a1 1 0 0 0 -2 0v7a1 1 0 0 0 1 1z"/><path d="m45.316 14.052a1 1 0 0 0 -1.264.632l-2 6a1 1 0 1 0 1.9.632l2-6a1 1 0 0 0 -.636-1.264z"/><path d="m61 35h-6a1 1 0 0 0 -.774.367l-5.226 6.387v-6.316l4.5-2.57a1 1 0 0 0 .484-.672l1.835-9.196h1.961l-1.76 8.8a1 1 0 0 0 .98 1.2h4a1 1 0 0 0 0-2h-2.78l1.76-8.8a1 1 0 0 0 -.98-1.2h-4a1 1 0 0 0 -.98.8l-1.912 9.553-3.108 1.781v-11.134a1 1 0 0 0 -2 0v34a1 1 0 0 0 1 1h4a3 3 0 0 1 3 3v1a1 1 0 0 0 2 0v-1a5.006 5.006 0 0 0 -5-5h-3v-10.087l3.564-4.356 1.655 2.068a1 1 0 0 0 .781.375h4a1 1 0 0 0 0-2h-3.52l-1.621-2.027 1.615-1.973h5.526a1 1 0 0 0 0-2z"/><path d="m11.331 43.343a1 1 0 0 0 1.338-1.487l-4-3.6a1 1 0 0 0 -.669-.256h-5a1 1 0 0 0 0 2h4.616z"/></g></g></g></svg>