<svg height="512" viewBox="0 0 64 64" width="512" xmlns="http://www.w3.org/2000/svg"><g id="Fill_Ouline" data-name="Fill Ouline"><g id="Color"><g><g><path d="m47 8c-4.418 0-8 5.6-8 12.5a16.073 16.073 0 0 0 2.809 9.5h-15.823c0-.167.014-.331.014-.5 0-6.351-2.91-11.5-6.5-11.5s-6.5 5.149-6.5 11.5a18.179 18.179 0 0 0 1.105 6.406 26.7 26.7 0 0 1 1.895 9.494v3.43a4.116 4.116 0 0 0 3.607 4.153 4 4 0 0 0 4.393-3.983v7.828a4.116 4.116 0 0 0 3.607 4.153 4 4 0 0 0 4.393-3.981v-9.785a5.145 5.145 0 0 1 4.509-5.192 5 5 0 0 1 5.491 4.977v2.828a4.116 4.116 0 0 0 3.607 4.153 4 4 0 0 0 4.393-3.981v-6.48a39.688 39.688 0 0 1 3.6-15.957 17.672 17.672 0 0 0 1.4-7.063c0-6.9-3.582-12.5-8-12.5z" fill="#f8664f"/><g fill="#cc5144"><path d="m28 53v-23h-2.014c0-.167.014-.331.014-.5 0-6.351-2.91-11.5-6.5-11.5s-6.5 5.149-6.5 11.5a18.179 18.179 0 0 0 1.105 6.406 26.678 26.678 0 0 1 1.895 9.494v3.43a4.116 4.116 0 0 0 3.607 4.153 4 4 0 0 0 4.393-3.983v7.828a4.116 4.116 0 0 0 3.607 4.153 4 4 0 0 0 4.393-3.981 4 4 0 0 1 -4-4z"/><path d="m46 46a4 4 0 0 0 -4-4h-5a5 5 0 0 1 5 5v2.828a4.116 4.116 0 0 0 3.607 4.153 4 4 0 0 0 4.393-3.981 4 4 0 0 1 -4-4z"/><path d="m42.068 10.672a15.775 15.775 0 0 0 -3.068 9.828 16.073 16.073 0 0 0 2.809 9.5h-15.823c0-.167.014-.331.014-.5 0-6.351-2.91-11.5-6.5-11.5s-6.5 5.149-6.5 11.5c0 .144.015.281.018.423a17.989 17.989 0 1 0 29.05-19.251z"/></g></g><g><circle cx="32" cy="21" fill="#d0d8da" r="18"/><path d="m37 34a18 18 0 0 1 -14.978-27.978 18 18 0 1 0 24.956 24.956 17.907 17.907 0 0 1 -9.978 3.022z" fill="#93999a"/><circle cx="32" cy="24" fill="#f8664f" r="11"/><circle cx="32" cy="24" fill="#464a51" r="6"/><circle cx="35" cy="26" fill="#d0d8da" r="2"/><path d="m21.013 24.248a10.974 10.974 0 0 0 15.587 9.732 17.979 17.979 0 0 1 -15.587-9.732z" fill="#cc5144"/></g></g></g><g id="Outline_copy" data-name="Outline copy"><g fill="#323232"><path d="m32 40a18.989 18.989 0 0 0 7.972-36.229 1 1 0 0 0 -.841 1.814 17.025 17.025 0 0 1 7.095 6.153l-1.351 1.081-1.428-.714a1 1 0 0 0 -.894 1.79l1.447.723v2.382a1 1 0 0 0 2 0v-2.519l1.227-.982a16.626 16.626 0 0 1 1.247 11.62l-1.474-.737v-1.382a1 1 0 0 0 -2 0v2a1 1 0 0 0 .553.895l2.314 1.157a16.976 16.976 0 0 1 -32.69-3.734l1.48-.247.636.636a1 1 0 1 0 1.414-1.414l-.49-.49.678-1.356a1 1 0 1 0 -1.79-.894l-.772 1.547-1.317.22c0-.107-.016-.21-.016-.317a16.927 16.927 0 0 1 .844-5.265l2.762 1.184a1 1 0 0 0 .841-.024l2-1a1 1 0 1 0 -.894-1.79l-1.585.793-2.383-1.021a17.071 17.071 0 0 1 10.369-9.115l.944 2.2-.793 1.586a1 1 0 0 0 1.79.894l.641-1.283 3.221.806a1.025 1.025 0 0 0 .243.032 1 1 0 0 0 .242-1.97l-3.519-.88-.8-1.857a16.591 16.591 0 0 1 6.626.085 1 1 0 1 0 .417-1.955 19 19 0 1 0 -3.966 37.577z"/><path d="m32 17a7 7 0 1 0 7 7 7.008 7.008 0 0 0 -7-7zm3 10a1 1 0 1 1 1-1 1 1 0 0 1 -1 1zm-8-3a4.991 4.991 0 0 1 9.976-.24 2.989 2.989 0 1 0 -3.286 4.926 4.946 4.946 0 0 1 -1.69.314 5.006 5.006 0 0 1 -5-5z"/><path d="m40.707 11.707a1 1 0 0 0 -1.414-1.414l-1.138 1.137-1.323-1.985a1 1 0 0 0 -1.664 1.11l1.613 2.42-.013.018a11.947 11.947 0 0 0 -10.57.51l-.206-1.628a.864.864 0 0 0 -.035-.123c-.006-.023 0-.046-.008-.068l-1-3a1 1 0 0 0 -1.9.632l.424 1.272-2.232-.558a1 1 0 0 0 -.486 1.94l3.337.834.248 1.966a11.969 11.969 0 0 0 -1.5 16.971l-.552.552a1 1 0 1 0 1.414 1.414l.552-.552a11.923 11.923 0 0 0 11.95 2.073 1 1 0 0 0 -.7-1.874 10.016 10.016 0 1 1 3.114-1.875 1 1 0 0 0 1.326 1.5 11.971 11.971 0 0 0 -1.406-19.022l.22-.3z"/><path d="m50.693 8.166a1 1 0 1 0 -1.11 1.664c2.683 1.79 4.417 5.979 4.417 10.67a16.677 16.677 0 0 1 -1.316 6.66 40.626 40.626 0 0 0 -3.684 16.36v6.48a3 3 0 0 1 -3.3 2.986 3.118 3.118 0 0 1 -2.7-3.158v-2.828a6 6 0 0 0 -6.586-5.972 6.163 6.163 0 0 0 -5.414 6.187v9.785a3 3 0 0 1 -3.3 2.986 3.118 3.118 0 0 1 -2.7-3.158v-13.828a1 1 0 0 0 -2 0v6a3 3 0 0 1 -3.3 2.986 3.118 3.118 0 0 1 -2.7-3.158v-3.428a27.758 27.758 0 0 0 -1.961-9.849 15.924 15.924 0 0 1 -.893-3.674 1 1 0 1 0 -1.984.25 17.984 17.984 0 0 0 1.008 4.137 25.772 25.772 0 0 1 1.83 9.136v3.43a5.133 5.133 0 0 0 4.512 5.149 5.047 5.047 0 0 0 3.488-.979v3.828a5.133 5.133 0 0 0 4.512 5.149c.159.015.319.023.477.023a5 5 0 0 0 5.011-5v-9.785a4.149 4.149 0 0 1 3.6-4.2 4 4 0 0 1 4.4 3.985v2.828a5.133 5.133 0 0 0 4.512 5.149 5 5 0 0 0 5.488-4.977v-6.48a38.66 38.66 0 0 1 3.515-15.555 18.693 18.693 0 0 0 1.485-7.465c0-5.342-2.083-10.183-5.307-12.334z"/></g></g></g></svg>