<svg id="Capa_1" enable-background="new 0 0 512.003 512.003" height="512" viewBox="0 0 512.003 512.003" width="512" xmlns="http://www.w3.org/2000/svg"><g><g><path d="m165.395 339.727 31.738-32h117.737l29.548 32-88.205 90.659z" fill="#685e67"/><path d="m439.792 313.187h-96.161c-11.464 0-22.412 5.004-29.728 13.829-9.495 11.453-27.271 27.871-57.902 40.703v-.001c-30.631-12.832-48.407-29.25-57.902-40.703-7.317-8.826-18.264-13.829-29.728-13.829h-96.16s-19.288 89.694 45.142 145.397c65.995 57.057 138.649 44.811 138.649 44.811v.001s72.654 12.246 138.649-44.811c64.43-55.703 45.141-145.397 45.141-145.397z" fill="#f2eff2"/><g><path d="m159.817 307.727-10.52 35.888c-2.782 9.489 2.656 19.437 12.145 22.218 9.489 2.782 19.437-2.656 22.218-12.145l13.473-45.962h-37.316z" fill="#3351c5"/><path d="m69.926 404.959c33.413-33.209 66.703-66.541 99.882-99.985 4.04-4.072 4.068-10.658.027-14.729-15.484-15.599-37.254-24.943-61.206-23.886-41.722 1.84-75.555 35.688-77.379 77.411-1.047 23.969 8.32 45.75 23.946 61.23 4.075 4.036 10.661 4.003 14.73-.041z" fill="#cbc5cb"/><path d="m169.808 304.972c-33.18 33.45-66.474 66.775-99.883 99.987-4.068 4.048-10.659 4.079-14.727.041-3.85-3.809-7.317-8.012-10.347-12.527 29.205-29.07 58.317-58.234 87.346-87.501 4.037-4.068 4.068-10.659.021-14.727-10.461-10.534-23.777-18.214-38.712-21.764 4.888-1.173 9.943-1.899 15.121-2.128 23.954-1.048 45.728 8.292 61.202 23.891 4.047 4.07 4.016 10.66-.021 14.728z" fill="#b5adb6"/></g><g><path d="m394.648 458.589c-65.997 57.051-138.647 44.804-138.647 44.804v-.478c26.828-3.57 63.236-14.436 97.817-44.327 64.43-55.712 45.136-145.403 45.136-145.403h40.84c.001.001 19.284 89.692-45.146 145.404z" fill="#e1dde1"/><path d="m352.186 307.727 10.52 35.888c2.782 9.489-2.656 19.437-12.145 22.218-9.489 2.782-19.437-2.656-22.218-12.145l-13.473-45.962h37.316z" fill="#3351c5"/><path d="m442.078 404.959c-33.413-33.209-66.703-66.541-99.882-99.985-4.04-4.072-4.068-10.658-.027-14.729 15.484-15.599 37.254-24.943 61.206-23.886 41.722 1.84 75.555 35.688 77.379 77.411 1.047 23.969-8.32 45.75-23.946 61.23-4.076 4.036-10.662 4.003-14.73-.041z" fill="#cbc5cb"/><path d="m456.805 405.001c-4.068 4.037-10.659 4.006-14.727-.041-4.079-4.058-8.147-8.106-12.226-12.174 9.393-13.876 14.603-30.814 13.803-49.018-1.609-36.636-27.887-67.201-62.52-75.348 7.099-1.671 14.551-2.397 22.241-2.065 41.722 1.847 75.556 35.692 77.382 77.413 1.038 23.974-8.323 45.748-23.953 61.233z" fill="#b5adb6"/></g></g><path d="m256.923 329.636h-1.84c-15.737 0-28.495-12.758-28.495-28.495v-35.79h58.83v35.79c.001 15.738-12.757 28.495-28.495 28.495z" fill="#f89f8e"/><path d="m285.423 265.35v35.44c-9.47 2.66-19.35 4.04-29.42 4.04s-19.95-1.38-29.42-4.05v-35.43z" fill="#ea806f"/><path d="m344.335 147.987v48.509c0 1.245-.021 2.48-.083 3.705-1.931 47.056-40.705 84.626-88.248 84.626-47.534 0-86.308-37.57-88.248-84.626-.062-1.225-.083-2.46-.083-3.705v-48.509z" fill="#fdb0a0"/><path d="m344.335 147.987v48.509c0 1.245-.021 2.48-.083 3.705-.405 9.963-2.47 19.501-5.916 28.344l-72.816 23.372c-3.082.986-6.279 1.484-9.517 1.484s-6.435-.498-9.517-1.484l-72.805-23.362c-3.456-8.843-5.521-18.391-5.926-28.354-.062-1.225-.083-2.46-.083-3.705v-48.509z" fill="#f89f8e"/><g><path d="m333.725 29.005c0-11.877-9.628-21.505-21.505-21.505h-31.836c-11.877 0-21.505 9.628-21.505 21.505v43.227h67.039v19.458c0 11.877 9.628 21.505 21.505 21.505h31.836c11.877 0 21.505-9.628 21.505-21.505v-32.762c0-5.78-4.686-10.465-10.465-10.465h-37.115c-10.747 0-19.459-8.712-19.459-19.458z" fill="#5169cd"/><g fill="#3351c5"><path d="m400.763 58.926v32.764c0 11.873-9.631 21.504-21.504 21.504h-27.711c11.883 0 21.515-9.631 21.515-21.504v-32.764c0-5.781-4.691-10.462-10.472-10.462h27.711c5.78 0 10.461 4.681 10.461 10.462z"/><path d="m353.188 48.464h-27.711c-10.752 0-19.46-8.718-19.46-19.46 0-11.873-9.631-21.504-21.504-21.504h27.711c11.873 0 21.504 9.631 21.504 21.504 0 10.742 8.708 19.46 19.46 19.46z"/></g></g><g><path d="m358.617 171.219h-205.227v-29.55c0-56.672 45.941-102.613 102.613-102.613 56.672 0 102.613 45.941 102.613 102.613v29.55z" fill="#f2eff2"/><path d="m358.614 141.673v29.548h-32.288v-29.548c0-28.333-11.489-53.989-30.056-72.567-14.966-14.966-34.54-25.334-56.407-28.79 5.262-.83 10.648-1.266 16.139-1.266 28.344 0 53.989 11.489 72.556 30.056 18.578 18.578 30.056 44.234 30.056 72.567z" fill="#e1dde1"/></g><path d="m249.077 124.773c-25.983 23.507-69.988 30.158-89.162 31.983-5.331.508-9.399 4.977-9.399 10.332v24.661c0 4.51 2.913 8.504 7.207 9.882l95.109 30.521c2.062.662 4.28.662 6.343 0l95.109-30.521c4.294-1.378 7.207-5.372 7.207-9.882v-24.661c0-5.355-4.068-9.824-9.399-10.332-19.174-1.826-63.179-8.476-89.162-31.983-3.93-3.555-9.923-3.555-13.853 0z" fill="#cbc5cb"/><path d="m361.491 167.084v24.67c0 4.504-2.916 8.5-7.203 9.88l-45.344 14.551c18.36-20.145 20.684-45.883 19.73-62.821 9.32 1.816 17.529 2.833 23.414 3.394 5.334.508 9.403 4.97 9.403 10.326z" fill="#b5adb6"/><g><path d="m488.246 343.442c-1.985-45.422-39.12-82.572-84.541-84.576-24.939-1.093-49.306 8.412-66.859 26.096-4.12 4.15-5.76 9.853-4.965 15.265h-38.964v-15.307c30.239-12.63 52.833-40.328 57.844-74.281l5.813-1.865c7.426-2.383 12.416-9.225 12.416-17.023v-24.661c0-3.641-1.086-7.024-2.951-9.854.045-.333.077-.67.077-1.015v-14.55c0-7.112-.679-14.124-1.997-20.975h15.14c15.993 0 29.005-13.011 29.005-29.004v-32.764c0-9.906-8.059-17.965-17.965-17.965h-37.116c-6.594 0-11.958-5.365-11.958-11.958.001-15.994-13.011-29.005-29.004-29.005h-31.836c-15.993 0-29.005 13.012-29.005 29.005v2.655c-58.58 2.433-105.49 50.842-105.49 110.009v14.55c0 .345.031.682.077 1.015-1.864 2.83-2.951 6.213-2.951 9.854v24.661c0 7.799 4.989 14.64 12.416 17.023l5.812 1.865c5.011 33.953 27.604 61.652 57.844 74.281v15.307h-38.967c.796-5.411-.845-11.114-4.965-15.265-17.554-17.684-41.924-27.197-66.859-26.095-45.421 2.003-82.556 39.153-84.541 84.575-1.091 24.956 8.444 49.335 26.161 66.885 3.477 3.445 8.042 5.166 12.611 5.166 4.246 0 8.485-1.507 11.866-4.479 8.525 20.87 21.293 38.754 38.053 53.244 35.44 30.639 72.765 41.677 97.835 45.541 10.98 1.692 20.596 2.205 28.223 2.205 8.838 0 14.986-.688 17.495-1.029 2.509.341 8.656 1.029 17.496 1.029 7.626 0 17.244-.513 28.223-2.205 25.071-3.864 62.396-14.901 97.836-45.541 16.76-14.49 29.528-32.374 38.053-53.244 3.381 2.973 7.619 4.48 11.866 4.479 4.568 0 9.134-1.721 12.611-5.165 17.717-17.549 27.252-41.928 26.161-66.884zm-146.44-28.215c2.253 2.269 4.506 4.54 6.758 6.807l6.945 23.692c.782 2.667.479 5.479-.854 7.917s-3.536 4.212-6.203 4.994c-2.668.781-5.479.478-7.917-.854-2.438-1.333-4.212-3.536-4.994-6.203l-10.656-36.352h16.921zm-85.805 44.331c-27.409-12.02-43.437-26.845-52.127-37.328-.759-.916-1.568-1.794-2.4-2.65l1.276-4.354h19.211c5.493 12.867 18.271 21.91 33.122 21.91h1.84c14.852 0 27.629-9.042 33.122-21.91h19.207l1.276 4.353c-.833.857-1.642 1.736-2.4 2.65-8.69 10.484-24.718 25.309-52.127 37.329zm.002-313.002c19.203 0 37.708 5.697 53.513 16.475 3.423 2.333 8.088 1.451 10.422-1.971s1.451-8.088-1.971-10.422c-15.439-10.528-33.1-16.851-51.587-18.58v-3.053c0-7.722 6.283-14.005 14.005-14.005h31.836c7.722 0 14.005 6.282 14.005 14.004 0 14.865 12.093 26.958 26.958 26.958h37.116c1.635 0 2.965 1.33 2.965 2.965v32.761c0 7.722-6.283 14.004-14.005 14.004h-19.164c-3.499-10.123-8.479-19.742-14.897-28.594-2.432-3.354-7.121-4.101-10.475-1.669-3.353 2.432-4.101 7.121-1.669 10.475 11.816 16.295 18.062 35.578 18.062 55.764v7.454c-18.299-1.886-59.386-8.407-83.155-29.912-6.817-6.167-17.099-6.167-23.917 0-23.769 21.504-64.856 28.026-83.155 29.911v-7.454c0-52.444 42.668-95.111 95.113-95.111zm-78.473 169.308 73.011 23.43c1.787.573 3.625.86 5.462.86s3.676-.287 5.463-.86l31.977-10.262c3.944-1.266 6.115-5.489 4.849-9.433-1.265-3.944-5.489-6.115-9.433-4.849l-31.976 10.262c-.577.185-1.187.184-1.76 0l-95.108-30.521c-1.196-.384-2-1.485-2-2.741v-24.661c0-1.492 1.122-2.724 2.61-2.865 23.385-2.227 66.625-9.59 93.482-33.888 1.082-.978 2.711-.977 3.791 0 26.857 24.298 70.098 31.662 93.483 33.888 1.487.142 2.609 1.374 2.609 2.865v24.661c0 1.256-.804 2.357-1.999 2.741l-29.418 9.44c-3.944 1.266-6.115 5.489-4.85 9.433 1.266 3.945 5.488 6.117 9.433 4.85l7.32-2.349c-8.727 35.642-40.873 61.456-78.473 61.456-37.599-.001-69.746-25.815-78.473-61.457zm78.473 76.456c7.523 0 14.861-.875 21.915-2.528v11.349c0 11.577-9.418 20.995-20.995 20.995h-1.84c-11.577 0-20.995-9.418-20.995-20.995v-11.349c7.054 1.652 14.392 2.528 21.915 2.528zm-99.509 53.405 6.945-23.693c2.265-2.279 4.517-4.547 6.76-6.806h16.919l-10.656 36.352c-.782 2.667-2.555 4.87-4.994 6.203-2.438 1.333-5.25 1.636-7.918.854-2.667-.782-4.869-2.555-6.203-4.994-1.332-2.437-1.635-5.249-.853-7.916zm-34.236 107.185c-16.487-14.253-28.654-32.23-36.21-53.435 1.353-1.35 12.293-12.266 12.293-12.266 2.933-2.925 2.939-7.673.015-10.606s-7.674-2.94-10.606-.015c0 0-18.146 18.118-23.111 23.053-1.154 1.147-3.022 1.162-4.164.031-14.717-14.58-22.638-34.835-21.732-55.574 1.649-37.726 32.492-68.582 70.217-70.245 20.72-.915 40.97 6.986 55.552 21.677 1.131 1.14 1.119 3.007-.028 4.163-16.687 16.821-34.076 34.284-51.683 51.906-2.928 2.93-2.926 7.679.004 10.607 2.93 2.927 7.679 2.926 10.607-.004 6.059-6.064 12.088-12.106 18.075-18.112-1.055 5.718-.127 11.577 2.7 16.749 3.255 5.954 8.634 10.285 15.145 12.193 2.377.697 4.775 1.028 7.135 1.028 10.989 0 21.146-7.195 24.39-18.261l5.64-19.239c10.159 10.978 26.628 24.701 52.005 36.076v124.01c-18.448 1.299-74.591.92-126.244-43.736zm267.488 0c-32.537 28.129-66.744 38.35-89.711 41.969-16.204 2.553-29.273 2.284-36.533 1.767v-124.004c25.383-11.376 41.844-25.104 52.004-36.084l5.64 19.24c3.244 11.066 13.4 18.262 24.39 18.261 2.359 0 4.759-.332 7.135-1.028 6.512-1.909 11.891-6.239 15.146-12.193 2.827-5.171 3.755-11.03 2.7-16.746 18.628 18.69 37.158 37.211 55.432 55.403-7.557 21.195-19.722 39.166-36.203 53.415zm61.783-53.239c-1.141 1.13-3.01 1.116-4.165-.031-32.658-32.458-66.25-66.084-99.845-99.947-1.146-1.156-1.159-3.023-.028-4.163 13.999-14.102 32.409-21.752 52.159-21.752 1.126 0 2.259.025 3.394.075 37.725 1.664 68.567 32.52 70.216 70.246.907 20.736-7.014 40.993-21.731 55.572z"/><path d="m188.885 168.91c-4.142 0-7.5 3.358-7.5 7.5v10.206c0 4.142 3.358 7.5 7.5 7.5s7.5-3.358 7.5-7.5v-10.206c0-4.142-3.358-7.5-7.5-7.5z"/><path d="m215.732 163.721c-4.142 0-7.5 3.358-7.5 7.5v20.584c0 4.142 3.358 7.5 7.5 7.5s7.5-3.358 7.5-7.5v-20.584c0-4.142-3.357-7.5-7.5-7.5z"/><path d="m242.58 158.532c-4.142 0-7.5 3.358-7.5 7.5v30.963c0 4.142 3.358 7.5 7.5 7.5s7.5-3.358 7.5-7.5v-30.963c0-4.142-3.358-7.5-7.5-7.5z"/><path d="m269.427 158.532c-4.142 0-7.5 3.358-7.5 7.5v30.963c0 4.142 3.358 7.5 7.5 7.5s7.5-3.358 7.5-7.5v-30.963c0-4.142-3.358-7.5-7.5-7.5z"/><path d="m303.774 191.805v-20.584c0-4.142-3.358-7.5-7.5-7.5s-7.5 3.358-7.5 7.5v20.584c0 4.142 3.358 7.5 7.5 7.5s7.5-3.358 7.5-7.5z"/><path d="m323.122 194.116c4.142 0 7.5-3.358 7.5-7.5v-10.206c0-4.142-3.358-7.5-7.5-7.5s-7.5 3.358-7.5 7.5v10.206c0 4.142 3.358 7.5 7.5 7.5z"/><path d="m212.694 434.134c-4.142 0-7.5 3.358-7.5 7.5v7.058c0 4.142 3.358 7.5 7.5 7.5s7.5-3.358 7.5-7.5v-7.058c0-4.142-3.358-7.5-7.5-7.5z"/><path d="m176.838 408.979c-4.142 0-7.5 3.358-7.5 7.5v7.058c0 4.142 3.358 7.5 7.5 7.5s7.5-3.358 7.5-7.5v-7.058c0-4.143-3.358-7.5-7.5-7.5z"/><path d="m308.944 370.707c-4.142 0-7.5 3.358-7.5 7.5v7.058c0 4.142 3.358 7.5 7.5 7.5s7.5-3.358 7.5-7.5v-7.058c0-4.142-3.358-7.5-7.5-7.5z"/><path d="m358.617 412.507c-4.142 0-7.5 3.358-7.5 7.5v7.058c0 4.142 3.358 7.5 7.5 7.5s7.5-3.358 7.5-7.5v-7.058c0-4.142-3.358-7.5-7.5-7.5z"/></g></g></svg>