<?xml version="1.0" encoding="iso-8859-1"?>
<!-- Generator: Adobe Illustrator 19.0.0, SVG Export Plug-In . SVG Version: 6.00 Build 0)  -->
<svg version="1.1" id="Capa_1" xmlns="http://www.w3.org/2000/svg" xmlns:xlink="http://www.w3.org/1999/xlink" x="0px" y="0px"
	 viewBox="0 0 512 512" style="enable-background:new 0 0 512 512;" xml:space="preserve">
<path style="fill:#CA80DC;" d="M502,40v30h-72H130V40c0-16.57-13.43-30-30-30h372C488.57,10,502,23.43,502,40z"/>
<path style="fill:#EDECFF;" d="M430,472c0,16.57-13.43,30-30,30H40c16.57,0,30-13.43,30-30c0-11.559,0-84.396,0-96l60-20l-60-20
	c0-14.045,0-282.928,0-296c0-16.57,13.43-30,30-30s30,13.43,30,30v30h300v46l-40,20l40,20C430,170.61,430,453.3,430,472z"/>
<g>
	<polygon style="fill:#FED42D;" points="390.5,275.29 345.5,290.29 330.5,335.29 315.5,290.29 270.5,275.29 315.5,260.29 
		330.5,215.29 345.5,260.29 	"/>
	<polygon style="fill:#FED42D;" points="250.5,195.29 205.5,210.29 190.5,255.29 175.5,210.29 130.5,195.29 175.5,180.29 
		190.5,135.29 205.5,180.29 	"/>
</g>
<path style="fill:#CA80DC;" d="M70,442v30c0,16.57-13.43,30-30,30c-16.56,0-30-13.44-30-30v-30H70z"/>
<path d="M160,376c0,5.52,4.48,10,10,10s10-4.48,10-10s-4.48-10-10-10S160,370.48,160,376z"/>
<path d="M472,0H100C77.944,0,60,17.944,60,40v296c0,4.305,2.754,8.126,6.838,9.487L98.377,356l-31.539,10.513
	C62.754,367.874,60,371.695,60,376v56H10c-5.523,0-10,4.478-10,10v30c0,22.097,17.898,40,40,40h360c22.056,0,40-17.944,40-40V156
	c0-3.788-2.14-7.25-5.528-8.944L412.361,136l22.111-11.056C437.86,123.25,440,119.788,440,116V80h62c5.523,0,10-4.478,10-10V40
	C512,17.944,494.056,0,472,0z M20,472v-20h40v20c0,11.028-8.972,20-20,20C28.955,492,20,483.046,20,472z M385.528,127.056
	C382.14,128.75,380,132.212,380,136s2.14,7.25,5.528,8.944L420,162.181V472c0,11.028-8.972,20-20,20H74.619
	C78.034,486.112,80,479.283,80,472v-88.792l53.162-17.721c4.083-1.361,6.838-5.183,6.838-9.487s-2.754-8.126-6.838-9.487L80,328.792
	V40c0-11.028,8.972-20,20-20s20,8.972,20,20v30c0,5.522,4.477,10,10,10h290v29.819L385.528,127.056z M492,60
	c-3.826,0-332.645,0-352,0V40c0-7.283-1.966-14.112-5.381-20H472c11.028,0,20,8.972,20,20V60z"/>
<path d="M350,432H150c-5.523,0-10,4.478-10,10s4.477,10,10,10h200c5.523,0,10-4.478,10-10S355.523,432,350,432z"/>
<path d="M350,366H210c-5.523,0-10,4.478-10,10s4.477,10,10,10h140c5.523,0,10-4.478,10-10S355.523,366,350,366z"/>
<path d="M181.013,258.452c1.361,4.084,5.183,6.838,9.487,6.838s8.125-2.754,9.487-6.838l13.419-40.257l40.256-13.418
	c4.083-1.361,6.838-5.183,6.838-9.487s-2.754-8.126-6.838-9.487l-40.256-13.418l-13.419-40.257
	c-1.361-4.084-5.183-6.838-9.487-6.838s-8.125,2.754-9.487,6.838l-13.419,40.257l-40.256,13.418
	c-4.083,1.361-6.838,5.183-6.838,9.487s2.754,8.126,6.838,9.487l40.256,13.418L181.013,258.452z M178.662,189.777
	c2.986-0.996,5.33-3.339,6.325-6.325l5.513-16.539l5.513,16.539c0.995,2.986,3.338,5.329,6.325,6.325l16.54,5.513l-16.54,5.513
	c-2.986,0.996-5.33,3.339-6.325,6.325l-5.513,16.539l-5.513-16.539c-0.995-2.986-3.338-5.329-6.325-6.325l-16.54-5.513
	L178.662,189.777z"/>
<path d="M339.987,212.128c-1.361-4.084-5.183-6.838-9.487-6.838s-8.125,2.754-9.487,6.838l-13.419,40.257l-40.256,13.418
	c-4.083,1.361-6.838,5.183-6.838,9.487s2.754,8.126,6.838,9.487l40.256,13.418l13.419,40.257c1.361,4.084,5.183,6.838,9.487,6.838
	s8.125-2.754,9.487-6.838l13.419-40.257l40.256-13.418c4.083-1.361,6.838-5.183,6.838-9.487s-2.754-8.126-6.838-9.487
	l-40.256-13.418L339.987,212.128z M342.338,280.803c-2.986,0.996-5.33,3.339-6.325,6.325l-5.513,16.539l-5.513-16.539
	c-0.995-2.986-3.338-5.329-6.325-6.325l-16.54-5.513l16.54-5.513c2.986-0.996,5.33-3.339,6.325-6.325l5.513-16.539l5.513,16.539
	c0.995,2.986,3.338,5.329,6.325,6.325l16.54,5.513L342.338,280.803z"/>
<g>
</g>
<g>
</g>
<g>
</g>
<g>
</g>
<g>
</g>
<g>
</g>
<g>
</g>
<g>
</g>
<g>
</g>
<g>
</g>
<g>
</g>
<g>
</g>
<g>
</g>
<g>
</g>
<g>
</g>
</svg>
